<svg width="4778" height="608" viewBox="0 0 4778 608" fill="none" xmlns="http://www.w3.org/2000/svg">
<g filter="url(#filter0_d_737_737)">
<g clip-path="url(#clip0_737_737)">
<g style="mix-blend-mode:soft-light" opacity="0.3">
<g filter="url(#filter1_d_737_737)">
<path d="M54 163V158.5C51.5147 158.5 49.5 160.515 49.5 163H54ZM274 163L229 137.019V188.981L274 163ZM58.5 600V163H49.5V600H58.5ZM54 167.5H233.5V158.5H54V167.5Z" fill="black"/>
</g>
<g filter="url(#filter2_d_737_737)">
<path d="M1153 295L1157.5 295C1157.5 292.515 1155.48 290.5 1153 290.5L1153 295ZM1153 543L1178.98 498L1127.02 498L1153 543ZM-45.0005 299.5L1153 299.5L1153 290.5L-45.0005 290.5L-45.0005 299.5ZM1148.5 295L1148.5 502.5L1157.5 502.5L1157.5 295L1148.5 295Z" fill="black"/>
</g>
<g filter="url(#filter3_d_737_737)">
<path d="M93 48L88.5 48C88.5 45.5147 90.5147 43.5 93 43.5L93 48ZM93 390L67.0192 345L118.981 345L93 390ZM1204 52.5L93 52.5L93 43.5L1204 43.5L1204 52.5ZM97.5 48L97.5 349.5L88.5 349.5L88.5 48L97.5 48Z" fill="white"/>
</g>
<g filter="url(#filter4_d_737_737)">
<path d="M329 491V495.5C326.515 495.5 324.5 493.485 324.5 491H329ZM947 491L902 516.981V465.019L947 491ZM333.5 0L333.5 491H324.5L324.5 0H333.5ZM329 486.5L906.5 486.5V495.5L329 495.5V486.5Z" fill="white"/>
</g>
<g filter="url(#filter5_d_737_737)">
<path d="M1030 443L1034.5 443C1034.5 445.485 1032.48 447.5 1030 447.5L1030 443ZM1030 119L1055.98 164L1004.02 164L1030 119ZM-199 438.5L1030 438.5L1030 447.5L-199 447.5L-199 438.5ZM1025.5 443L1025.5 159.5L1034.5 159.5L1034.5 443L1025.5 443Z" fill="white"/>
</g>
<g filter="url(#filter6_d_737_737)">
<path d="M292 532V536.5C289.515 536.5 287.5 534.485 287.5 532H292ZM617 532L572 557.981V506.019L617 532ZM296.5 2.3172L296.5 532H287.5L287.5 2.3172H296.5ZM292 527.5H576.5V536.5H292V527.5Z" fill="black"/>
</g>
<g filter="url(#filter7_d_737_737)">
<path d="M973 390V394.5C975.485 394.5 977.5 392.485 977.5 390H973ZM648 390L693 415.981V364.019L648 390ZM968.5 0V390H977.5V0H968.5ZM973 385.5H688.5V394.5H973V385.5Z" fill="black"/>
</g>
<g filter="url(#filter8_d_737_737)">
<path d="M1094 100V95.5C1096.49 95.5 1098.5 97.5147 1098.5 100H1094ZM362 100L407 74.0192V125.981L362 100ZM1089.5 637V100H1098.5V637H1089.5ZM1094 104.5H402.5V95.5H1094V104.5Z" fill="black"/>
</g>
<g filter="url(#filter9_d_737_737)">
<path d="M527 355L522.5 355C522.5 357.485 524.514 359.5 527 359.5L527 355ZM527 231L501.019 276L552.981 276L527 231ZM1367 350.5L527 350.5L527 359.5L1367 359.5L1367 350.5ZM531.5 355L531.5 271.5L522.5 271.5L522.5 355L531.5 355Z" fill="white"/>
</g>
</g>
</g>
<g clip-path="url(#clip1_737_737)">
<g style="mix-blend-mode:soft-light" opacity="0.3">
<g filter="url(#filter10_d_737_737)">
<path d="M2354 163V158.5C2356.49 158.5 2358.5 160.515 2358.5 163H2354ZM2134 163L2179 137.019V188.981L2134 163ZM2349.5 600V163H2358.5V600H2349.5ZM2354 167.5H2174.5V158.5H2354V167.5Z" fill="black"/>
</g>
<g filter="url(#filter11_d_737_737)">
<path d="M1255 295L1250.5 295C1250.5 292.515 1252.52 290.5 1255 290.5L1255 295ZM1255 543L1229.02 498L1280.98 498L1255 543ZM2453 299.5L1255 299.5L1255 290.5L2453 290.5L2453 299.5ZM1259.5 295L1259.5 502.5L1250.5 502.5L1250.5 295L1259.5 295Z" fill="black"/>
</g>
<g filter="url(#filter12_d_737_737)">
<path d="M2315 48L2319.5 48C2319.5 45.5147 2317.49 43.5 2315 43.5L2315 48ZM2315 390L2340.98 345L2289.02 345L2315 390ZM1204 52.5L2315 52.5L2315 43.5L1204 43.5L1204 52.5ZM2310.5 48L2310.5 349.5L2319.5 349.5L2319.5 48L2310.5 48Z" fill="white"/>
</g>
<g filter="url(#filter13_d_737_737)">
<path d="M2079 491V495.5C2081.49 495.5 2083.5 493.485 2083.5 491H2079ZM1461 491L1506 516.981V465.019L1461 491ZM2074.5 0V491H2083.5V0H2074.5ZM2079 486.5L1501.5 486.5V495.5L2079 495.5V486.5Z" fill="white"/>
</g>
<g filter="url(#filter14_d_737_737)">
<path d="M1378 443L1373.5 443C1373.5 445.485 1375.52 447.5 1378 447.5L1378 443ZM1378 119L1352.02 164L1403.98 164L1378 119ZM2607 438.5L1378 438.5L1378 447.5L2607 447.5L2607 438.5ZM1382.5 443L1382.5 159.5L1373.5 159.5L1373.5 443L1382.5 443Z" fill="white"/>
</g>
<g filter="url(#filter15_d_737_737)">
<path d="M2116 532V536.5C2118.49 536.5 2120.5 534.485 2120.5 532H2116ZM1791 532L1836 557.981V506.019L1791 532ZM2111.5 2.3172V532H2120.5V2.3172H2111.5ZM2116 527.5H1831.5V536.5H2116V527.5Z" fill="black"/>
</g>
<g filter="url(#filter16_d_737_737)">
<path d="M1435 390V394.5C1432.51 394.5 1430.5 392.485 1430.5 390H1435ZM1760 390L1715 415.981V364.019L1760 390ZM1439.5 0V390H1430.5V0H1439.5ZM1435 385.5H1719.5V394.5H1435V385.5Z" fill="black"/>
</g>
<g filter="url(#filter17_d_737_737)">
<path d="M1314 100V95.5C1311.51 95.5 1309.5 97.5147 1309.5 100H1314ZM2046 100L2001 74.0192V125.981L2046 100ZM1318.5 637V100H1309.5V637H1318.5ZM1314 104.5H2005.5V95.5H1314V104.5Z" fill="black"/>
</g>
<g filter="url(#filter18_d_737_737)">
<path d="M1881 355L1885.5 355C1885.5 357.485 1883.49 359.5 1881 359.5L1881 355ZM1881 231L1906.98 276L1855.02 276L1881 231ZM1041 350.5L1881 350.5L1881 359.5L1041 359.5L1041 350.5ZM1876.5 355L1876.5 271.5L1885.5 271.5L1885.5 355L1876.5 355Z" fill="white"/>
</g>
</g>
</g>
<g clip-path="url(#clip2_737_737)">
<g style="mix-blend-mode:soft-light" opacity="0.3">
<g filter="url(#filter19_d_737_737)">
<path d="M2424 163V158.5C2421.51 158.5 2419.5 160.515 2419.5 163H2424ZM2644 163L2599 137.019V188.981L2644 163ZM2428.5 600V163H2419.5V600H2428.5ZM2424 167.5H2603.5V158.5H2424V167.5Z" fill="black"/>
</g>
<g filter="url(#filter20_d_737_737)">
<path d="M3523 295L3527.5 295C3527.5 292.515 3525.48 290.5 3523 290.5L3523 295ZM3523 543L3548.98 498L3497.02 498L3523 543ZM2325 299.5L3523 299.5L3523 290.5L2325 290.5L2325 299.5ZM3518.5 295L3518.5 502.5L3527.5 502.5L3527.5 295L3518.5 295Z" fill="black"/>
</g>
<g filter="url(#filter21_d_737_737)">
<path d="M2463 48L2458.5 48C2458.5 45.5147 2460.51 43.5 2463 43.5L2463 48ZM2463 390L2437.02 345L2488.98 345L2463 390ZM3574 52.5L2463 52.5L2463 43.5L3574 43.5L3574 52.5ZM2467.5 48L2467.5 349.5L2458.5 349.5L2458.5 48L2467.5 48Z" fill="white"/>
</g>
<g filter="url(#filter22_d_737_737)">
<path d="M2699 491V495.5C2696.51 495.5 2694.5 493.485 2694.5 491H2699ZM3317 491L3272 516.981V465.019L3317 491ZM2703.5 0V491H2694.5V0H2703.5ZM2699 486.5L3276.5 486.5V495.5L2699 495.5V486.5Z" fill="white"/>
</g>
<g filter="url(#filter23_d_737_737)">
<path d="M3400 443L3404.5 443C3404.5 445.485 3402.48 447.5 3400 447.5L3400 443ZM3400 119L3425.98 164L3374.02 164L3400 119ZM2171 438.5L3400 438.5L3400 447.5L2171 447.5L2171 438.5ZM3395.5 443L3395.5 159.5L3404.5 159.5L3404.5 443L3395.5 443Z" fill="white"/>
</g>
<g filter="url(#filter24_d_737_737)">
<path d="M2662 532V536.5C2659.51 536.5 2657.5 534.485 2657.5 532H2662ZM2987 532L2942 557.981V506.019L2987 532ZM2666.5 2.3172V532H2657.5V2.3172H2666.5ZM2662 527.5H2946.5V536.5H2662V527.5Z" fill="black"/>
</g>
<g filter="url(#filter25_d_737_737)">
<path d="M3343 390V394.5C3345.49 394.5 3347.5 392.485 3347.5 390H3343ZM3018 390L3063 415.981V364.019L3018 390ZM3338.5 0V390H3347.5V0H3338.5ZM3343 385.5H3058.5V394.5H3343V385.5Z" fill="black"/>
</g>
<g filter="url(#filter26_d_737_737)">
<path d="M3464 100V95.5C3466.49 95.5 3468.5 97.5147 3468.5 100H3464ZM2732 100L2777 74.0192V125.981L2732 100ZM3459.5 637V100H3468.5V637H3459.5ZM3464 104.5H2772.5V95.5H3464V104.5Z" fill="black"/>
</g>
<g filter="url(#filter27_d_737_737)">
<path d="M2897 355L2892.5 355C2892.5 357.485 2894.51 359.5 2897 359.5L2897 355ZM2897 231L2871.02 276L2922.98 276L2897 231ZM3737 350.5L2897 350.5L2897 359.5L3737 359.5L3737 350.5ZM2901.5 355L2901.5 271.5L2892.5 271.5L2892.5 355L2901.5 355Z" fill="white"/>
</g>
</g>
</g>
<g clip-path="url(#clip3_737_737)">
<g style="mix-blend-mode:soft-light" opacity="0.3">
<g filter="url(#filter28_d_737_737)">
<path d="M4724 163V158.5C4726.49 158.5 4728.5 160.515 4728.5 163H4724ZM4504 163L4549 137.019V188.981L4504 163ZM4719.5 600V163H4728.5V600H4719.5ZM4724 167.5H4544.5V158.5H4724V167.5Z" fill="black"/>
</g>
<g filter="url(#filter29_d_737_737)">
<path d="M3625 295L3620.5 295C3620.5 292.515 3622.52 290.5 3625 290.5L3625 295ZM3625 543L3599.02 498L3650.98 498L3625 543ZM4823 299.5L3625 299.5L3625 290.5L4823 290.5L4823 299.5ZM3629.5 295L3629.5 502.5L3620.5 502.5L3620.5 295L3629.5 295Z" fill="black"/>
</g>
<g filter="url(#filter30_d_737_737)">
<path d="M4685 48L4689.5 48C4689.5 45.5147 4687.49 43.5 4685 43.5L4685 48ZM4685 390L4710.98 345L4659.02 345L4685 390ZM3574 52.5L4685 52.5L4685 43.5L3574 43.5L3574 52.5ZM4680.5 48L4680.5 349.5L4689.5 349.5L4689.5 48L4680.5 48Z" fill="white"/>
</g>
<g filter="url(#filter31_d_737_737)">
<path d="M4449 491V495.5C4451.49 495.5 4453.5 493.485 4453.5 491H4449ZM3831 491L3876 516.981V465.019L3831 491ZM4444.5 0V491H4453.5V0H4444.5ZM4449 486.5L3871.5 486.5V495.5L4449 495.5V486.5Z" fill="white"/>
</g>
<g filter="url(#filter32_d_737_737)">
<path d="M3748 443L3743.5 443C3743.5 445.485 3745.52 447.5 3748 447.5L3748 443ZM3748 119L3722.02 164L3773.98 164L3748 119ZM4977 438.5L3748 438.5L3748 447.5L4977 447.5L4977 438.5ZM3752.5 443L3752.5 159.5L3743.5 159.5L3743.5 443L3752.5 443Z" fill="white"/>
</g>
<g filter="url(#filter33_d_737_737)">
<path d="M4486 532V536.5C4488.49 536.5 4490.5 534.485 4490.5 532H4486ZM4161 532L4206 557.981V506.019L4161 532ZM4481.5 2.3172V532H4490.5V2.3172H4481.5ZM4486 527.5H4201.5V536.5H4486V527.5Z" fill="black"/>
</g>
<g filter="url(#filter34_d_737_737)">
<path d="M3805 390V394.5C3802.51 394.5 3800.5 392.485 3800.5 390H3805ZM4130 390L4085 415.981V364.019L4130 390ZM3809.5 0V390H3800.5V0H3809.5ZM3805 385.5H4089.5V394.5H3805V385.5Z" fill="black"/>
</g>
<g filter="url(#filter35_d_737_737)">
<path d="M3684 100V95.5C3681.51 95.5 3679.5 97.5147 3679.5 100H3684ZM4416 100L4371 74.0192V125.981L4416 100ZM3688.5 637V100H3679.5V637H3688.5ZM3684 104.5H4375.5V95.5H3684V104.5Z" fill="black"/>
</g>
<g filter="url(#filter36_d_737_737)">
<path d="M4251 355L4255.5 355C4255.5 357.485 4253.49 359.5 4251 359.5L4251 355ZM4251 231L4276.98 276L4225.02 276L4251 231ZM3411 350.5L4251 350.5L4251 359.5L3411 359.5L3411 350.5ZM4246.5 355L4246.5 271.5L4255.5 271.5L4255.5 355L4246.5 355Z" fill="white"/>
</g>
</g>
</g>
</g>
<defs>
<filter id="filter0_d_737_737" x="0" y="0" width="4778" height="608" filterUnits="userSpaceOnUse" color-interpolation-filters="sRGB">
<feFlood flood-opacity="0" result="BackgroundImageFix"/>
<feColorMatrix in="SourceAlpha" type="matrix" values="0 0 0 0 0 0 0 0 0 0 0 0 0 0 0 0 0 0 127 0" result="hardAlpha"/>
<feOffset dy="4"/>
<feGaussianBlur stdDeviation="2"/>
<feComposite in2="hardAlpha" operator="out"/>
<feColorMatrix type="matrix" values="0 0 0 0 0 0 0 0 0 0 0 0 0 0 0 0 0 0 0.25 0"/>
<feBlend mode="normal" in2="BackgroundImageFix" result="effect1_dropShadow_737_737"/>
<feBlend mode="normal" in="SourceGraphic" in2="effect1_dropShadow_737_737" result="shape"/>
</filter>
<filter id="filter1_d_737_737" x="49.5" y="137.02" width="224.5" height="466.98" filterUnits="userSpaceOnUse" color-interpolation-filters="sRGB">
<feFlood flood-opacity="0" result="BackgroundImageFix"/>
<feColorMatrix in="SourceAlpha" type="matrix" values="0 0 0 0 0 0 0 0 0 0 0 0 0 0 0 0 0 0 127 0" result="hardAlpha"/>
<feOffset dy="4"/>
<feComposite in2="hardAlpha" operator="out"/>
<feColorMatrix type="matrix" values="0 0 0 0 0 0 0 0 0 0 0 0 0 0 0 0 0 0 0.25 0"/>
<feBlend mode="normal" in2="BackgroundImageFix" result="effect1_dropShadow_737_737"/>
<feBlend mode="normal" in="SourceGraphic" in2="effect1_dropShadow_737_737" result="shape"/>
</filter>
<filter id="filter2_d_737_737" x="-45.0005" y="290.5" width="1223.98" height="256.5" filterUnits="userSpaceOnUse" color-interpolation-filters="sRGB">
<feFlood flood-opacity="0" result="BackgroundImageFix"/>
<feColorMatrix in="SourceAlpha" type="matrix" values="0 0 0 0 0 0 0 0 0 0 0 0 0 0 0 0 0 0 127 0" result="hardAlpha"/>
<feOffset dy="4"/>
<feComposite in2="hardAlpha" operator="out"/>
<feColorMatrix type="matrix" values="0 0 0 0 0 0 0 0 0 0 0 0 0 0 0 0 0 0 0.25 0"/>
<feBlend mode="normal" in2="BackgroundImageFix" result="effect1_dropShadow_737_737"/>
<feBlend mode="normal" in="SourceGraphic" in2="effect1_dropShadow_737_737" result="shape"/>
</filter>
<filter id="filter3_d_737_737" x="67.0193" y="43.5" width="1136.98" height="350.5" filterUnits="userSpaceOnUse" color-interpolation-filters="sRGB">
<feFlood flood-opacity="0" result="BackgroundImageFix"/>
<feColorMatrix in="SourceAlpha" type="matrix" values="0 0 0 0 0 0 0 0 0 0 0 0 0 0 0 0 0 0 127 0" result="hardAlpha"/>
<feOffset dy="4"/>
<feComposite in2="hardAlpha" operator="out"/>
<feColorMatrix type="matrix" values="0 0 0 0 0 0 0 0 0 0 0 0 0 0 0 0 0 0 0.25 0"/>
<feBlend mode="normal" in2="BackgroundImageFix" result="effect1_dropShadow_737_737"/>
<feBlend mode="normal" in="SourceGraphic" in2="effect1_dropShadow_737_737" result="shape"/>
</filter>
<filter id="filter4_d_737_737" x="324.5" y="0" width="622.5" height="520.98" filterUnits="userSpaceOnUse" color-interpolation-filters="sRGB">
<feFlood flood-opacity="0" result="BackgroundImageFix"/>
<feColorMatrix in="SourceAlpha" type="matrix" values="0 0 0 0 0 0 0 0 0 0 0 0 0 0 0 0 0 0 127 0" result="hardAlpha"/>
<feOffset dy="4"/>
<feComposite in2="hardAlpha" operator="out"/>
<feColorMatrix type="matrix" values="0 0 0 0 0 0 0 0 0 0 0 0 0 0 0 0 0 0 0.25 0"/>
<feBlend mode="normal" in2="BackgroundImageFix" result="effect1_dropShadow_737_737"/>
<feBlend mode="normal" in="SourceGraphic" in2="effect1_dropShadow_737_737" result="shape"/>
</filter>
<filter id="filter5_d_737_737" x="-199" y="119" width="1254.98" height="332.5" filterUnits="userSpaceOnUse" color-interpolation-filters="sRGB">
<feFlood flood-opacity="0" result="BackgroundImageFix"/>
<feColorMatrix in="SourceAlpha" type="matrix" values="0 0 0 0 0 0 0 0 0 0 0 0 0 0 0 0 0 0 127 0" result="hardAlpha"/>
<feOffset dy="4"/>
<feComposite in2="hardAlpha" operator="out"/>
<feColorMatrix type="matrix" values="0 0 0 0 0 0 0 0 0 0 0 0 0 0 0 0 0 0 0.25 0"/>
<feBlend mode="normal" in2="BackgroundImageFix" result="effect1_dropShadow_737_737"/>
<feBlend mode="normal" in="SourceGraphic" in2="effect1_dropShadow_737_737" result="shape"/>
</filter>
<filter id="filter6_d_737_737" x="287.5" y="2.31738" width="329.5" height="559.663" filterUnits="userSpaceOnUse" color-interpolation-filters="sRGB">
<feFlood flood-opacity="0" result="BackgroundImageFix"/>
<feColorMatrix in="SourceAlpha" type="matrix" values="0 0 0 0 0 0 0 0 0 0 0 0 0 0 0 0 0 0 127 0" result="hardAlpha"/>
<feOffset dy="4"/>
<feComposite in2="hardAlpha" operator="out"/>
<feColorMatrix type="matrix" values="0 0 0 0 0 0 0 0 0 0 0 0 0 0 0 0 0 0 0.25 0"/>
<feBlend mode="normal" in2="BackgroundImageFix" result="effect1_dropShadow_737_737"/>
<feBlend mode="normal" in="SourceGraphic" in2="effect1_dropShadow_737_737" result="shape"/>
</filter>
<filter id="filter7_d_737_737" x="648" y="0" width="329.5" height="419.98" filterUnits="userSpaceOnUse" color-interpolation-filters="sRGB">
<feFlood flood-opacity="0" result="BackgroundImageFix"/>
<feColorMatrix in="SourceAlpha" type="matrix" values="0 0 0 0 0 0 0 0 0 0 0 0 0 0 0 0 0 0 127 0" result="hardAlpha"/>
<feOffset dy="4"/>
<feComposite in2="hardAlpha" operator="out"/>
<feColorMatrix type="matrix" values="0 0 0 0 0 0 0 0 0 0 0 0 0 0 0 0 0 0 0.25 0"/>
<feBlend mode="normal" in2="BackgroundImageFix" result="effect1_dropShadow_737_737"/>
<feBlend mode="normal" in="SourceGraphic" in2="effect1_dropShadow_737_737" result="shape"/>
</filter>
<filter id="filter8_d_737_737" x="362" y="74.0195" width="736.5" height="566.98" filterUnits="userSpaceOnUse" color-interpolation-filters="sRGB">
<feFlood flood-opacity="0" result="BackgroundImageFix"/>
<feColorMatrix in="SourceAlpha" type="matrix" values="0 0 0 0 0 0 0 0 0 0 0 0 0 0 0 0 0 0 127 0" result="hardAlpha"/>
<feOffset dy="4"/>
<feComposite in2="hardAlpha" operator="out"/>
<feColorMatrix type="matrix" values="0 0 0 0 0 0 0 0 0 0 0 0 0 0 0 0 0 0 0.25 0"/>
<feBlend mode="normal" in2="BackgroundImageFix" result="effect1_dropShadow_737_737"/>
<feBlend mode="normal" in="SourceGraphic" in2="effect1_dropShadow_737_737" result="shape"/>
</filter>
<filter id="filter9_d_737_737" x="501.019" y="231" width="865.981" height="132.5" filterUnits="userSpaceOnUse" color-interpolation-filters="sRGB">
<feFlood flood-opacity="0" result="BackgroundImageFix"/>
<feColorMatrix in="SourceAlpha" type="matrix" values="0 0 0 0 0 0 0 0 0 0 0 0 0 0 0 0 0 0 127 0" result="hardAlpha"/>
<feOffset dy="4"/>
<feComposite in2="hardAlpha" operator="out"/>
<feColorMatrix type="matrix" values="0 0 0 0 0 0 0 0 0 0 0 0 0 0 0 0 0 0 0.25 0"/>
<feBlend mode="normal" in2="BackgroundImageFix" result="effect1_dropShadow_737_737"/>
<feBlend mode="normal" in="SourceGraphic" in2="effect1_dropShadow_737_737" result="shape"/>
</filter>
<filter id="filter10_d_737_737" x="2134" y="137.02" width="224.5" height="466.98" filterUnits="userSpaceOnUse" color-interpolation-filters="sRGB">
<feFlood flood-opacity="0" result="BackgroundImageFix"/>
<feColorMatrix in="SourceAlpha" type="matrix" values="0 0 0 0 0 0 0 0 0 0 0 0 0 0 0 0 0 0 127 0" result="hardAlpha"/>
<feOffset dy="4"/>
<feComposite in2="hardAlpha" operator="out"/>
<feColorMatrix type="matrix" values="0 0 0 0 0 0 0 0 0 0 0 0 0 0 0 0 0 0 0.25 0"/>
<feBlend mode="normal" in2="BackgroundImageFix" result="effect1_dropShadow_737_737"/>
<feBlend mode="normal" in="SourceGraphic" in2="effect1_dropShadow_737_737" result="shape"/>
</filter>
<filter id="filter11_d_737_737" x="1229.02" y="290.5" width="1223.98" height="256.5" filterUnits="userSpaceOnUse" color-interpolation-filters="sRGB">
<feFlood flood-opacity="0" result="BackgroundImageFix"/>
<feColorMatrix in="SourceAlpha" type="matrix" values="0 0 0 0 0 0 0 0 0 0 0 0 0 0 0 0 0 0 127 0" result="hardAlpha"/>
<feOffset dy="4"/>
<feComposite in2="hardAlpha" operator="out"/>
<feColorMatrix type="matrix" values="0 0 0 0 0 0 0 0 0 0 0 0 0 0 0 0 0 0 0.25 0"/>
<feBlend mode="normal" in2="BackgroundImageFix" result="effect1_dropShadow_737_737"/>
<feBlend mode="normal" in="SourceGraphic" in2="effect1_dropShadow_737_737" result="shape"/>
</filter>
<filter id="filter12_d_737_737" x="1204" y="43.5" width="1136.98" height="350.5" filterUnits="userSpaceOnUse" color-interpolation-filters="sRGB">
<feFlood flood-opacity="0" result="BackgroundImageFix"/>
<feColorMatrix in="SourceAlpha" type="matrix" values="0 0 0 0 0 0 0 0 0 0 0 0 0 0 0 0 0 0 127 0" result="hardAlpha"/>
<feOffset dy="4"/>
<feComposite in2="hardAlpha" operator="out"/>
<feColorMatrix type="matrix" values="0 0 0 0 0 0 0 0 0 0 0 0 0 0 0 0 0 0 0.25 0"/>
<feBlend mode="normal" in2="BackgroundImageFix" result="effect1_dropShadow_737_737"/>
<feBlend mode="normal" in="SourceGraphic" in2="effect1_dropShadow_737_737" result="shape"/>
</filter>
<filter id="filter13_d_737_737" x="1461" y="0" width="622.5" height="520.98" filterUnits="userSpaceOnUse" color-interpolation-filters="sRGB">
<feFlood flood-opacity="0" result="BackgroundImageFix"/>
<feColorMatrix in="SourceAlpha" type="matrix" values="0 0 0 0 0 0 0 0 0 0 0 0 0 0 0 0 0 0 127 0" result="hardAlpha"/>
<feOffset dy="4"/>
<feComposite in2="hardAlpha" operator="out"/>
<feColorMatrix type="matrix" values="0 0 0 0 0 0 0 0 0 0 0 0 0 0 0 0 0 0 0.25 0"/>
<feBlend mode="normal" in2="BackgroundImageFix" result="effect1_dropShadow_737_737"/>
<feBlend mode="normal" in="SourceGraphic" in2="effect1_dropShadow_737_737" result="shape"/>
</filter>
<filter id="filter14_d_737_737" x="1352.02" y="119" width="1254.98" height="332.5" filterUnits="userSpaceOnUse" color-interpolation-filters="sRGB">
<feFlood flood-opacity="0" result="BackgroundImageFix"/>
<feColorMatrix in="SourceAlpha" type="matrix" values="0 0 0 0 0 0 0 0 0 0 0 0 0 0 0 0 0 0 127 0" result="hardAlpha"/>
<feOffset dy="4"/>
<feComposite in2="hardAlpha" operator="out"/>
<feColorMatrix type="matrix" values="0 0 0 0 0 0 0 0 0 0 0 0 0 0 0 0 0 0 0.25 0"/>
<feBlend mode="normal" in2="BackgroundImageFix" result="effect1_dropShadow_737_737"/>
<feBlend mode="normal" in="SourceGraphic" in2="effect1_dropShadow_737_737" result="shape"/>
</filter>
<filter id="filter15_d_737_737" x="1791" y="2.31738" width="329.5" height="559.663" filterUnits="userSpaceOnUse" color-interpolation-filters="sRGB">
<feFlood flood-opacity="0" result="BackgroundImageFix"/>
<feColorMatrix in="SourceAlpha" type="matrix" values="0 0 0 0 0 0 0 0 0 0 0 0 0 0 0 0 0 0 127 0" result="hardAlpha"/>
<feOffset dy="4"/>
<feComposite in2="hardAlpha" operator="out"/>
<feColorMatrix type="matrix" values="0 0 0 0 0 0 0 0 0 0 0 0 0 0 0 0 0 0 0.25 0"/>
<feBlend mode="normal" in2="BackgroundImageFix" result="effect1_dropShadow_737_737"/>
<feBlend mode="normal" in="SourceGraphic" in2="effect1_dropShadow_737_737" result="shape"/>
</filter>
<filter id="filter16_d_737_737" x="1430.5" y="0" width="329.5" height="419.98" filterUnits="userSpaceOnUse" color-interpolation-filters="sRGB">
<feFlood flood-opacity="0" result="BackgroundImageFix"/>
<feColorMatrix in="SourceAlpha" type="matrix" values="0 0 0 0 0 0 0 0 0 0 0 0 0 0 0 0 0 0 127 0" result="hardAlpha"/>
<feOffset dy="4"/>
<feComposite in2="hardAlpha" operator="out"/>
<feColorMatrix type="matrix" values="0 0 0 0 0 0 0 0 0 0 0 0 0 0 0 0 0 0 0.25 0"/>
<feBlend mode="normal" in2="BackgroundImageFix" result="effect1_dropShadow_737_737"/>
<feBlend mode="normal" in="SourceGraphic" in2="effect1_dropShadow_737_737" result="shape"/>
</filter>
<filter id="filter17_d_737_737" x="1309.5" y="74.0195" width="736.5" height="566.98" filterUnits="userSpaceOnUse" color-interpolation-filters="sRGB">
<feFlood flood-opacity="0" result="BackgroundImageFix"/>
<feColorMatrix in="SourceAlpha" type="matrix" values="0 0 0 0 0 0 0 0 0 0 0 0 0 0 0 0 0 0 127 0" result="hardAlpha"/>
<feOffset dy="4"/>
<feComposite in2="hardAlpha" operator="out"/>
<feColorMatrix type="matrix" values="0 0 0 0 0 0 0 0 0 0 0 0 0 0 0 0 0 0 0.25 0"/>
<feBlend mode="normal" in2="BackgroundImageFix" result="effect1_dropShadow_737_737"/>
<feBlend mode="normal" in="SourceGraphic" in2="effect1_dropShadow_737_737" result="shape"/>
</filter>
<filter id="filter18_d_737_737" x="1041" y="231" width="865.981" height="132.5" filterUnits="userSpaceOnUse" color-interpolation-filters="sRGB">
<feFlood flood-opacity="0" result="BackgroundImageFix"/>
<feColorMatrix in="SourceAlpha" type="matrix" values="0 0 0 0 0 0 0 0 0 0 0 0 0 0 0 0 0 0 127 0" result="hardAlpha"/>
<feOffset dy="4"/>
<feComposite in2="hardAlpha" operator="out"/>
<feColorMatrix type="matrix" values="0 0 0 0 0 0 0 0 0 0 0 0 0 0 0 0 0 0 0.25 0"/>
<feBlend mode="normal" in2="BackgroundImageFix" result="effect1_dropShadow_737_737"/>
<feBlend mode="normal" in="SourceGraphic" in2="effect1_dropShadow_737_737" result="shape"/>
</filter>
<filter id="filter19_d_737_737" x="2419.5" y="137.02" width="224.5" height="466.98" filterUnits="userSpaceOnUse" color-interpolation-filters="sRGB">
<feFlood flood-opacity="0" result="BackgroundImageFix"/>
<feColorMatrix in="SourceAlpha" type="matrix" values="0 0 0 0 0 0 0 0 0 0 0 0 0 0 0 0 0 0 127 0" result="hardAlpha"/>
<feOffset dy="4"/>
<feComposite in2="hardAlpha" operator="out"/>
<feColorMatrix type="matrix" values="0 0 0 0 0 0 0 0 0 0 0 0 0 0 0 0 0 0 0.25 0"/>
<feBlend mode="normal" in2="BackgroundImageFix" result="effect1_dropShadow_737_737"/>
<feBlend mode="normal" in="SourceGraphic" in2="effect1_dropShadow_737_737" result="shape"/>
</filter>
<filter id="filter20_d_737_737" x="2325" y="290.5" width="1223.98" height="256.5" filterUnits="userSpaceOnUse" color-interpolation-filters="sRGB">
<feFlood flood-opacity="0" result="BackgroundImageFix"/>
<feColorMatrix in="SourceAlpha" type="matrix" values="0 0 0 0 0 0 0 0 0 0 0 0 0 0 0 0 0 0 127 0" result="hardAlpha"/>
<feOffset dy="4"/>
<feComposite in2="hardAlpha" operator="out"/>
<feColorMatrix type="matrix" values="0 0 0 0 0 0 0 0 0 0 0 0 0 0 0 0 0 0 0.25 0"/>
<feBlend mode="normal" in2="BackgroundImageFix" result="effect1_dropShadow_737_737"/>
<feBlend mode="normal" in="SourceGraphic" in2="effect1_dropShadow_737_737" result="shape"/>
</filter>
<filter id="filter21_d_737_737" x="2437.02" y="43.5" width="1136.98" height="350.5" filterUnits="userSpaceOnUse" color-interpolation-filters="sRGB">
<feFlood flood-opacity="0" result="BackgroundImageFix"/>
<feColorMatrix in="SourceAlpha" type="matrix" values="0 0 0 0 0 0 0 0 0 0 0 0 0 0 0 0 0 0 127 0" result="hardAlpha"/>
<feOffset dy="4"/>
<feComposite in2="hardAlpha" operator="out"/>
<feColorMatrix type="matrix" values="0 0 0 0 0 0 0 0 0 0 0 0 0 0 0 0 0 0 0.25 0"/>
<feBlend mode="normal" in2="BackgroundImageFix" result="effect1_dropShadow_737_737"/>
<feBlend mode="normal" in="SourceGraphic" in2="effect1_dropShadow_737_737" result="shape"/>
</filter>
<filter id="filter22_d_737_737" x="2694.5" y="0" width="622.5" height="520.98" filterUnits="userSpaceOnUse" color-interpolation-filters="sRGB">
<feFlood flood-opacity="0" result="BackgroundImageFix"/>
<feColorMatrix in="SourceAlpha" type="matrix" values="0 0 0 0 0 0 0 0 0 0 0 0 0 0 0 0 0 0 127 0" result="hardAlpha"/>
<feOffset dy="4"/>
<feComposite in2="hardAlpha" operator="out"/>
<feColorMatrix type="matrix" values="0 0 0 0 0 0 0 0 0 0 0 0 0 0 0 0 0 0 0.25 0"/>
<feBlend mode="normal" in2="BackgroundImageFix" result="effect1_dropShadow_737_737"/>
<feBlend mode="normal" in="SourceGraphic" in2="effect1_dropShadow_737_737" result="shape"/>
</filter>
<filter id="filter23_d_737_737" x="2171" y="119" width="1254.98" height="332.5" filterUnits="userSpaceOnUse" color-interpolation-filters="sRGB">
<feFlood flood-opacity="0" result="BackgroundImageFix"/>
<feColorMatrix in="SourceAlpha" type="matrix" values="0 0 0 0 0 0 0 0 0 0 0 0 0 0 0 0 0 0 127 0" result="hardAlpha"/>
<feOffset dy="4"/>
<feComposite in2="hardAlpha" operator="out"/>
<feColorMatrix type="matrix" values="0 0 0 0 0 0 0 0 0 0 0 0 0 0 0 0 0 0 0.25 0"/>
<feBlend mode="normal" in2="BackgroundImageFix" result="effect1_dropShadow_737_737"/>
<feBlend mode="normal" in="SourceGraphic" in2="effect1_dropShadow_737_737" result="shape"/>
</filter>
<filter id="filter24_d_737_737" x="2657.5" y="2.31738" width="329.5" height="559.663" filterUnits="userSpaceOnUse" color-interpolation-filters="sRGB">
<feFlood flood-opacity="0" result="BackgroundImageFix"/>
<feColorMatrix in="SourceAlpha" type="matrix" values="0 0 0 0 0 0 0 0 0 0 0 0 0 0 0 0 0 0 127 0" result="hardAlpha"/>
<feOffset dy="4"/>
<feComposite in2="hardAlpha" operator="out"/>
<feColorMatrix type="matrix" values="0 0 0 0 0 0 0 0 0 0 0 0 0 0 0 0 0 0 0.25 0"/>
<feBlend mode="normal" in2="BackgroundImageFix" result="effect1_dropShadow_737_737"/>
<feBlend mode="normal" in="SourceGraphic" in2="effect1_dropShadow_737_737" result="shape"/>
</filter>
<filter id="filter25_d_737_737" x="3018" y="0" width="329.5" height="419.98" filterUnits="userSpaceOnUse" color-interpolation-filters="sRGB">
<feFlood flood-opacity="0" result="BackgroundImageFix"/>
<feColorMatrix in="SourceAlpha" type="matrix" values="0 0 0 0 0 0 0 0 0 0 0 0 0 0 0 0 0 0 127 0" result="hardAlpha"/>
<feOffset dy="4"/>
<feComposite in2="hardAlpha" operator="out"/>
<feColorMatrix type="matrix" values="0 0 0 0 0 0 0 0 0 0 0 0 0 0 0 0 0 0 0.25 0"/>
<feBlend mode="normal" in2="BackgroundImageFix" result="effect1_dropShadow_737_737"/>
<feBlend mode="normal" in="SourceGraphic" in2="effect1_dropShadow_737_737" result="shape"/>
</filter>
<filter id="filter26_d_737_737" x="2732" y="74.0195" width="736.5" height="566.98" filterUnits="userSpaceOnUse" color-interpolation-filters="sRGB">
<feFlood flood-opacity="0" result="BackgroundImageFix"/>
<feColorMatrix in="SourceAlpha" type="matrix" values="0 0 0 0 0 0 0 0 0 0 0 0 0 0 0 0 0 0 127 0" result="hardAlpha"/>
<feOffset dy="4"/>
<feComposite in2="hardAlpha" operator="out"/>
<feColorMatrix type="matrix" values="0 0 0 0 0 0 0 0 0 0 0 0 0 0 0 0 0 0 0.25 0"/>
<feBlend mode="normal" in2="BackgroundImageFix" result="effect1_dropShadow_737_737"/>
<feBlend mode="normal" in="SourceGraphic" in2="effect1_dropShadow_737_737" result="shape"/>
</filter>
<filter id="filter27_d_737_737" x="2871.02" y="231" width="865.981" height="132.5" filterUnits="userSpaceOnUse" color-interpolation-filters="sRGB">
<feFlood flood-opacity="0" result="BackgroundImageFix"/>
<feColorMatrix in="SourceAlpha" type="matrix" values="0 0 0 0 0 0 0 0 0 0 0 0 0 0 0 0 0 0 127 0" result="hardAlpha"/>
<feOffset dy="4"/>
<feComposite in2="hardAlpha" operator="out"/>
<feColorMatrix type="matrix" values="0 0 0 0 0 0 0 0 0 0 0 0 0 0 0 0 0 0 0.25 0"/>
<feBlend mode="normal" in2="BackgroundImageFix" result="effect1_dropShadow_737_737"/>
<feBlend mode="normal" in="SourceGraphic" in2="effect1_dropShadow_737_737" result="shape"/>
</filter>
<filter id="filter28_d_737_737" x="4504" y="137.02" width="224.5" height="466.98" filterUnits="userSpaceOnUse" color-interpolation-filters="sRGB">
<feFlood flood-opacity="0" result="BackgroundImageFix"/>
<feColorMatrix in="SourceAlpha" type="matrix" values="0 0 0 0 0 0 0 0 0 0 0 0 0 0 0 0 0 0 127 0" result="hardAlpha"/>
<feOffset dy="4"/>
<feComposite in2="hardAlpha" operator="out"/>
<feColorMatrix type="matrix" values="0 0 0 0 0 0 0 0 0 0 0 0 0 0 0 0 0 0 0.25 0"/>
<feBlend mode="normal" in2="BackgroundImageFix" result="effect1_dropShadow_737_737"/>
<feBlend mode="normal" in="SourceGraphic" in2="effect1_dropShadow_737_737" result="shape"/>
</filter>
<filter id="filter29_d_737_737" x="3599.02" y="290.5" width="1223.98" height="256.5" filterUnits="userSpaceOnUse" color-interpolation-filters="sRGB">
<feFlood flood-opacity="0" result="BackgroundImageFix"/>
<feColorMatrix in="SourceAlpha" type="matrix" values="0 0 0 0 0 0 0 0 0 0 0 0 0 0 0 0 0 0 127 0" result="hardAlpha"/>
<feOffset dy="4"/>
<feComposite in2="hardAlpha" operator="out"/>
<feColorMatrix type="matrix" values="0 0 0 0 0 0 0 0 0 0 0 0 0 0 0 0 0 0 0.25 0"/>
<feBlend mode="normal" in2="BackgroundImageFix" result="effect1_dropShadow_737_737"/>
<feBlend mode="normal" in="SourceGraphic" in2="effect1_dropShadow_737_737" result="shape"/>
</filter>
<filter id="filter30_d_737_737" x="3574" y="43.5" width="1136.98" height="350.5" filterUnits="userSpaceOnUse" color-interpolation-filters="sRGB">
<feFlood flood-opacity="0" result="BackgroundImageFix"/>
<feColorMatrix in="SourceAlpha" type="matrix" values="0 0 0 0 0 0 0 0 0 0 0 0 0 0 0 0 0 0 127 0" result="hardAlpha"/>
<feOffset dy="4"/>
<feComposite in2="hardAlpha" operator="out"/>
<feColorMatrix type="matrix" values="0 0 0 0 0 0 0 0 0 0 0 0 0 0 0 0 0 0 0.25 0"/>
<feBlend mode="normal" in2="BackgroundImageFix" result="effect1_dropShadow_737_737"/>
<feBlend mode="normal" in="SourceGraphic" in2="effect1_dropShadow_737_737" result="shape"/>
</filter>
<filter id="filter31_d_737_737" x="3831" y="0" width="622.5" height="520.98" filterUnits="userSpaceOnUse" color-interpolation-filters="sRGB">
<feFlood flood-opacity="0" result="BackgroundImageFix"/>
<feColorMatrix in="SourceAlpha" type="matrix" values="0 0 0 0 0 0 0 0 0 0 0 0 0 0 0 0 0 0 127 0" result="hardAlpha"/>
<feOffset dy="4"/>
<feComposite in2="hardAlpha" operator="out"/>
<feColorMatrix type="matrix" values="0 0 0 0 0 0 0 0 0 0 0 0 0 0 0 0 0 0 0.25 0"/>
<feBlend mode="normal" in2="BackgroundImageFix" result="effect1_dropShadow_737_737"/>
<feBlend mode="normal" in="SourceGraphic" in2="effect1_dropShadow_737_737" result="shape"/>
</filter>
<filter id="filter32_d_737_737" x="3722.02" y="119" width="1254.98" height="332.5" filterUnits="userSpaceOnUse" color-interpolation-filters="sRGB">
<feFlood flood-opacity="0" result="BackgroundImageFix"/>
<feColorMatrix in="SourceAlpha" type="matrix" values="0 0 0 0 0 0 0 0 0 0 0 0 0 0 0 0 0 0 127 0" result="hardAlpha"/>
<feOffset dy="4"/>
<feComposite in2="hardAlpha" operator="out"/>
<feColorMatrix type="matrix" values="0 0 0 0 0 0 0 0 0 0 0 0 0 0 0 0 0 0 0.25 0"/>
<feBlend mode="normal" in2="BackgroundImageFix" result="effect1_dropShadow_737_737"/>
<feBlend mode="normal" in="SourceGraphic" in2="effect1_dropShadow_737_737" result="shape"/>
</filter>
<filter id="filter33_d_737_737" x="4161" y="2.31738" width="329.5" height="559.663" filterUnits="userSpaceOnUse" color-interpolation-filters="sRGB">
<feFlood flood-opacity="0" result="BackgroundImageFix"/>
<feColorMatrix in="SourceAlpha" type="matrix" values="0 0 0 0 0 0 0 0 0 0 0 0 0 0 0 0 0 0 127 0" result="hardAlpha"/>
<feOffset dy="4"/>
<feComposite in2="hardAlpha" operator="out"/>
<feColorMatrix type="matrix" values="0 0 0 0 0 0 0 0 0 0 0 0 0 0 0 0 0 0 0.25 0"/>
<feBlend mode="normal" in2="BackgroundImageFix" result="effect1_dropShadow_737_737"/>
<feBlend mode="normal" in="SourceGraphic" in2="effect1_dropShadow_737_737" result="shape"/>
</filter>
<filter id="filter34_d_737_737" x="3800.5" y="0" width="329.5" height="419.98" filterUnits="userSpaceOnUse" color-interpolation-filters="sRGB">
<feFlood flood-opacity="0" result="BackgroundImageFix"/>
<feColorMatrix in="SourceAlpha" type="matrix" values="0 0 0 0 0 0 0 0 0 0 0 0 0 0 0 0 0 0 127 0" result="hardAlpha"/>
<feOffset dy="4"/>
<feComposite in2="hardAlpha" operator="out"/>
<feColorMatrix type="matrix" values="0 0 0 0 0 0 0 0 0 0 0 0 0 0 0 0 0 0 0.25 0"/>
<feBlend mode="normal" in2="BackgroundImageFix" result="effect1_dropShadow_737_737"/>
<feBlend mode="normal" in="SourceGraphic" in2="effect1_dropShadow_737_737" result="shape"/>
</filter>
<filter id="filter35_d_737_737" x="3679.5" y="74.0195" width="736.5" height="566.98" filterUnits="userSpaceOnUse" color-interpolation-filters="sRGB">
<feFlood flood-opacity="0" result="BackgroundImageFix"/>
<feColorMatrix in="SourceAlpha" type="matrix" values="0 0 0 0 0 0 0 0 0 0 0 0 0 0 0 0 0 0 127 0" result="hardAlpha"/>
<feOffset dy="4"/>
<feComposite in2="hardAlpha" operator="out"/>
<feColorMatrix type="matrix" values="0 0 0 0 0 0 0 0 0 0 0 0 0 0 0 0 0 0 0.25 0"/>
<feBlend mode="normal" in2="BackgroundImageFix" result="effect1_dropShadow_737_737"/>
<feBlend mode="normal" in="SourceGraphic" in2="effect1_dropShadow_737_737" result="shape"/>
</filter>
<filter id="filter36_d_737_737" x="3411" y="231" width="865.981" height="132.5" filterUnits="userSpaceOnUse" color-interpolation-filters="sRGB">
<feFlood flood-opacity="0" result="BackgroundImageFix"/>
<feColorMatrix in="SourceAlpha" type="matrix" values="0 0 0 0 0 0 0 0 0 0 0 0 0 0 0 0 0 0 127 0" result="hardAlpha"/>
<feOffset dy="4"/>
<feComposite in2="hardAlpha" operator="out"/>
<feColorMatrix type="matrix" values="0 0 0 0 0 0 0 0 0 0 0 0 0 0 0 0 0 0 0.25 0"/>
<feBlend mode="normal" in2="BackgroundImageFix" result="effect1_dropShadow_737_737"/>
<feBlend mode="normal" in="SourceGraphic" in2="effect1_dropShadow_737_737" result="shape"/>
</filter>
<clipPath id="clip0_737_737">
<rect width="1200" height="600" fill="white" transform="translate(4)"/>
</clipPath>
<clipPath id="clip1_737_737">
<rect width="1200" height="600" fill="white" transform="matrix(-1 0 0 1 2404 0)"/>
</clipPath>
<clipPath id="clip2_737_737">
<rect width="1200" height="600" fill="white" transform="translate(2374)"/>
</clipPath>
<clipPath id="clip3_737_737">
<rect width="1200" height="600" fill="white" transform="matrix(-1 0 0 1 4774 0)"/>
</clipPath>
</defs>
</svg>
